<svg width="560" height="560" viewBox="0 0 560 560" fill="none" xmlns="http://www.w3.org/2000/svg">
<path d="M516.121 334.63V392.988C516.121 398.061 514.106 402.926 510.519 406.513C506.932 410.1 502.067 412.116 496.994 412.116H287.737C282.666 412.112 277.805 410.095 274.221 406.508C270.637 402.922 268.623 398.059 268.623 392.988V343.67L242.561 316.301L496.939 315.516C499.455 315.507 501.948 315.995 504.274 316.951C506.601 317.908 508.717 319.314 510.499 321.09C512.281 322.866 513.695 324.976 514.66 327.299C515.625 329.623 516.121 332.114 516.121 334.63Z" fill="#F5F5F5"/>
<path d="M299.461 350.867L489.357 349.987L489.329 344.152L299.447 345.033L299.461 350.867Z" fill="#E6E6E6"/>
<path d="M299.461 370.063L489.357 369.196L489.329 363.362L299.447 364.229L299.461 370.063Z" fill="#E6E6E6"/>
<path d="M374.557 382.594L299.425 382.961L299.453 388.795L374.585 388.428L374.557 382.594Z" fill="#E6E6E6"/>
<path d="M145.26 0H268.678C270.124 0 271.556 0.284741 272.891 0.837968C274.227 1.3912 275.44 2.20207 276.463 3.2243C277.485 4.24653 278.296 5.4601 278.849 6.7957C279.402 8.13131 279.687 9.56281 279.687 11.0085V71.4312C279.687 74.3508 278.527 77.1508 276.463 79.2153C274.398 81.2798 271.598 82.4396 268.678 82.4396H163.947C161.027 82.4396 158.227 81.2798 156.162 79.2153C154.098 77.1508 152.938 74.3508 152.938 71.4312V7.62336L145.26 0Z" fill="#F5F5F5"/>
<path d="M300.314 109.892V131.578C300.314 133.038 300.894 134.438 301.926 135.47C302.958 136.503 304.358 137.083 305.818 137.083H426.994C428.454 137.083 429.854 136.503 430.886 135.47C431.918 134.438 432.498 133.038 432.498 131.578V119.731L446.41 104.842L305.832 104.387C305.108 104.386 304.391 104.527 303.721 104.802C303.052 105.078 302.444 105.483 301.931 105.995C301.418 106.506 301.012 107.113 300.734 107.782C300.457 108.451 300.314 109.168 300.314 109.892Z" fill="#F0F0F0"/>
<path d="M218.631 66.7524V105.461C218.633 107.126 218.306 108.776 217.67 110.315C217.034 111.854 216.101 113.253 214.924 114.431C213.747 115.61 212.349 116.544 210.811 117.182C209.272 117.82 207.623 118.148 205.958 118.148H67.1134C65.4479 118.148 63.7988 117.82 62.2603 117.182C60.7217 116.544 59.324 115.61 58.147 114.431C56.97 113.253 56.0367 111.854 55.4006 110.315C54.7645 108.776 54.4381 107.126 54.4399 105.461V72.7658L37.1979 54.6018L205.916 54.0789C207.584 54.0735 209.237 54.3973 210.779 55.0318C212.321 55.6662 213.723 56.5989 214.905 57.7763C216.086 58.9537 217.023 60.3526 217.662 61.8929C218.302 63.4332 218.631 65.0846 218.631 66.7524Z" fill="#E0E0E0"/>
<path d="M74.9431 77.5269L200.88 76.949L200.866 73.0823L74.9294 73.6602L74.9431 77.5269Z" fill="#F0F0F0"/>
<path d="M74.9431 90.2692L200.88 89.6775L200.866 85.8108L74.9294 86.3887L74.9431 90.2692Z" fill="#F0F0F0"/>
<path d="M124.738 98.5746L74.9112 98.8181L74.9301 102.685L124.757 102.441L124.738 98.5746Z" fill="#F0F0F0"/>
<path d="M14.0664 194.492V252.864C14.0664 255.375 14.5612 257.862 15.5226 260.182C16.484 262.502 17.8931 264.609 19.6694 266.384C21.4457 268.159 23.5544 269.567 25.875 270.527C28.1955 271.486 30.6824 271.979 33.1936 271.978H242.451C244.962 271.979 247.449 271.486 249.769 270.527C252.09 269.567 254.199 268.159 255.975 266.384C257.751 264.609 259.16 262.502 260.122 260.182C261.083 257.862 261.578 255.375 261.578 252.864V203.546L287.627 176.176L33.2486 175.337C30.7299 175.33 28.2345 175.82 25.9057 176.78C23.5769 177.739 21.4606 179.15 19.6783 180.929C17.896 182.709 16.4827 184.823 15.5197 187.151C14.5566 189.478 14.0627 191.973 14.0664 194.492Z" fill="#F0F0F0"/>
<path d="M230.727 210.729L40.8307 209.863L40.8582 204.028L230.741 204.895L230.727 210.729Z" fill="#E6E6E6"/>
<path d="M230.727 229.939L40.8307 229.058L40.8582 223.224L230.741 224.105L230.727 229.939Z" fill="#E6E6E6"/>
<path d="M155.599 242.432L155.571 248.266L230.703 248.634L230.731 242.799L155.599 242.432Z" fill="#E6E6E6"/>
<path d="M424.874 56.9588C430.632 44.1576 424.923 29.112 412.122 23.3536C399.32 17.5951 384.275 23.3044 378.516 36.1056C372.758 48.9068 378.467 63.9523 391.268 69.7108C404.07 75.4692 419.115 69.76 424.874 56.9588Z" fill="#F5F5F5"/>
<path d="M392.923 40.1256C393.872 40.043 394.753 41.1026 394.863 42.4924C394.973 43.8822 394.299 45.0794 393.335 45.162C392.372 45.2445 391.492 44.1712 391.381 42.7814C391.271 41.3916 391.959 40.1944 392.923 40.1256Z" fill="#E0E0E0"/>
<path d="M395.152 33.6856C393.621 33.8749 392.108 34.1832 390.625 34.6076C389.22 35.2493 387.867 35.9992 386.579 36.8506C387.513 35.5103 388.836 34.4884 390.369 33.9225C391.901 33.3567 393.571 33.274 395.152 33.6856Z" fill="#E0E0E0"/>
<path d="M409.078 39.7954C408.101 39.7954 407.275 40.8412 407.22 42.2448C407.165 43.6484 407.894 44.7905 408.871 44.8318C409.848 44.8731 410.66 43.7722 410.715 42.3824C410.77 40.9926 410.041 39.8229 409.078 39.7954Z" fill="#E0E0E0"/>
<path d="M406.573 33.4515C408.128 32.9698 409.794 32.9753 411.346 33.4673C412.898 33.9592 414.262 34.914 415.256 36.2036C413.94 35.3978 412.559 34.7028 411.128 34.1258C409.629 33.7877 408.106 33.5623 406.573 33.4515Z" fill="#E0E0E0"/>
<path d="M414.224 46.2632C414.234 46.7283 414.174 47.1923 414.045 47.6392C413.721 48.8619 413.201 50.0238 412.504 51.0794C411.507 52.6681 410.19 54.0318 408.637 55.0837C406.74 56.427 404.501 57.2046 402.18 57.3264C399.859 57.4482 397.551 56.9091 395.523 55.7717C393.865 54.8818 392.408 53.6591 391.244 52.1802C390.466 51.1933 389.853 50.0875 389.428 48.9052C389.235 48.4709 389.128 48.0038 389.111 47.5292C389.772 49.0594 390.627 50.4978 391.657 51.8087C392.797 53.1795 394.201 54.3073 395.785 55.125C397.709 56.1673 399.883 56.6584 402.068 56.5443C404.253 56.4302 406.365 55.7152 408.169 54.4783C409.675 53.5007 410.971 52.233 411.981 50.7491C412.915 49.3547 413.669 47.8474 414.224 46.2632Z" fill="#E0E0E0"/>
<path d="M52.4584 332.208H56.1049L64.1411 321.502V314.47C64.1411 314.47 69.8242 314.14 69.1637 323.346C68.5032 332.552 69.1637 330.226 69.1637 330.226C69.1637 330.226 81.2318 330.226 82.2363 331.272C82.9656 332.001 83.2958 343.478 83.4197 349.698C83.48 351.227 83.0203 352.731 82.1157 353.966C81.211 355.201 79.9148 356.092 78.4384 356.495C77.9873 356.602 77.5257 356.657 77.0623 356.66C74.2001 356.592 58.857 354.225 58.857 354.225H52.4584V332.208Z" fill="#F0F0F0"/>
<path d="M41.9315 330.24L44.1883 354.307H50.4906V330.722L41.9315 330.24Z" fill="#F0F0F0"/>
<path d="M558.366 122.937C557.498 122.008 556.302 121.454 555.032 121.395C553.762 121.336 552.519 121.776 551.568 122.621C550.624 123.376 549.858 124.33 549.323 125.414C548.788 126.498 548.497 127.687 548.472 128.896C548.249 127.685 547.763 126.539 547.05 125.536C546.337 124.533 545.414 123.697 544.344 123.089C543.282 122.372 541.982 122.098 540.72 122.324C539.459 122.55 538.335 123.259 537.588 124.3C536.781 125.728 536.535 127.406 536.9 129.006C537.138 130.62 537.814 132.138 538.854 133.395C542.665 137.441 544.633 138.088 549.353 140.826C553.646 137.496 555.036 136.698 558.256 132.116C559.125 130.732 559.6 129.139 559.632 127.506C559.786 125.879 559.335 124.253 558.366 122.937Z" fill="#F0F0F0"/>
<path d="M331.619 494.211L188.399 493.537C184.303 493.521 180.251 492.698 176.473 491.115C172.695 489.532 169.266 487.22 166.382 484.312C163.498 481.403 161.215 477.955 159.664 474.164C158.113 470.373 157.323 466.314 157.342 462.218L158.869 103.163C158.916 94.8956 162.242 86.9846 168.117 81.1669C173.991 75.3491 181.934 72.1001 190.202 72.1331L333.422 72.7936C341.694 72.8336 349.612 76.1564 355.436 82.0317C361.26 87.9069 364.513 95.854 364.48 104.126L362.966 463.14C362.926 471.416 359.602 479.338 353.724 485.164C347.846 490.99 339.895 494.244 331.619 494.211Z" fill="#263238"/>
<path d="M333.216 85.1508L305.447 85.0269C304.541 85.0412 303.647 85.2344 302.816 85.5952C301.984 85.956 301.233 86.4774 300.604 87.1294C299.975 87.7815 299.481 88.5514 299.15 89.3949C298.819 90.2384 298.658 91.139 298.676 92.0448V97.0812C298.695 97.9871 298.534 98.8876 298.203 99.7311C297.872 100.575 297.378 101.345 296.749 101.997C296.12 102.649 295.369 103.17 294.537 103.531C293.706 103.892 292.812 104.085 291.906 104.099L237.745 103.851C236.837 103.83 235.943 103.629 235.114 103.261C234.285 102.893 233.537 102.364 232.912 101.705C232.288 101.047 231.801 100.271 231.477 99.4232C231.154 98.5752 231.002 97.6717 231.029 96.7647V91.7283C231.057 90.8213 230.905 89.9178 230.582 89.0699C230.258 88.2219 229.771 87.4463 229.147 86.7876C228.522 86.1289 227.774 85.6002 226.945 85.2319C226.116 84.8636 225.222 84.663 224.314 84.6416H214.544L190.284 84.5178C187.415 84.5051 184.571 85.0578 181.915 86.1442C179.259 87.2307 176.843 88.8297 174.805 90.8499C172.766 92.87 171.146 95.2719 170.036 97.9182C168.927 100.565 168.349 103.404 168.336 106.273L166.85 456.728C166.828 462.522 169.107 468.088 173.186 472.204C177.265 476.319 182.811 478.647 188.606 478.676L331.537 479.336C334.406 479.349 337.25 478.796 339.906 477.71C342.562 476.623 344.979 475.024 347.017 473.004C349.055 470.984 350.675 468.582 351.785 465.936C352.895 463.29 353.472 460.45 353.485 457.581L354.971 107.126C354.986 104.255 354.434 101.409 353.349 98.7504C352.263 96.092 350.665 93.6735 348.645 91.6328C346.624 89.5922 344.222 87.9694 341.575 86.8572C338.927 85.7451 336.087 85.1652 333.216 85.1508Z" fill="white"/>
<path d="M254.656 435.082C254.656 435.675 254.48 436.255 254.151 436.749C253.821 437.242 253.353 437.626 252.805 437.854C252.256 438.081 251.653 438.14 251.071 438.024C250.489 437.909 249.955 437.623 249.535 437.203C249.116 436.784 248.83 436.249 248.714 435.667C248.599 435.085 248.658 434.482 248.885 433.934C249.112 433.386 249.497 432.917 249.99 432.588C250.483 432.258 251.063 432.082 251.657 432.082C252.451 432.086 253.212 432.403 253.774 432.965C254.336 433.527 254.653 434.288 254.656 435.082Z" fill="#455A64"/>
<path d="M266.05 435.082C266.05 435.675 265.874 436.255 265.545 436.749C265.215 437.242 264.746 437.626 264.198 437.854C263.65 438.081 263.047 438.14 262.465 438.024C261.883 437.909 261.349 437.623 260.929 437.203C260.51 436.784 260.224 436.249 260.108 435.667C259.992 435.085 260.052 434.482 260.279 433.934C260.506 433.386 260.89 432.917 261.384 432.588C261.877 432.258 262.457 432.082 263.05 432.082C263.845 432.086 264.606 432.403 265.167 432.965C265.729 433.527 266.046 434.288 266.05 435.082Z" fill="#455A64"/>
<path d="M277.444 435.082C277.444 435.675 277.268 436.255 276.938 436.749C276.609 437.242 276.14 437.626 275.592 437.854C275.044 438.081 274.441 438.14 273.859 438.024C273.277 437.909 272.742 437.623 272.323 437.203C271.903 436.784 271.618 436.249 271.502 435.667C271.386 435.085 271.446 434.482 271.673 433.934C271.9 433.386 272.284 432.917 272.777 432.588C273.271 432.258 273.851 432.082 274.444 432.082C275.239 432.086 275.999 432.403 276.561 432.965C277.123 433.527 277.44 434.288 277.444 435.082Z" fill="#455A64"/>
<path d="M194.963 182.92C194.963 182.92 194.963 182.672 194.963 182.163C195.068 180.167 195.773 178.248 196.986 176.659C197.99 175.291 199.319 174.194 200.852 173.466C202.808 172.597 204.954 172.242 207.086 172.434H233.121L343.206 172.654H344.018L343.453 173.246L329.349 188.08L329.445 187.846V212.409C329.544 214.046 329.424 215.689 329.087 217.294C328.665 218.902 327.868 220.387 326.762 221.628C325.677 222.866 324.321 223.837 322.799 224.463C321.285 225.058 319.664 225.335 318.038 225.275H273.123L212.976 225.151H206.646C204.62 225.306 202.588 224.942 200.742 224.091C199.064 223.28 197.63 222.04 196.586 220.495C195.542 218.951 194.925 217.158 194.798 215.298C194.798 208.418 194.798 202.625 194.798 197.823C194.798 193.02 194.798 189.332 194.867 186.814C194.867 185.562 194.867 184.612 194.867 183.938C194.867 183.264 194.867 182.961 194.867 182.961C194.867 182.961 194.867 183.291 194.867 183.938C194.867 184.585 194.867 185.562 194.867 186.814C194.867 189.36 194.867 193.075 194.867 197.823C194.867 202.57 194.867 208.487 194.963 215.271C195.095 217.055 195.696 218.773 196.707 220.249C197.717 221.726 199.1 222.909 200.715 223.679C202.497 224.493 204.459 224.835 206.412 224.669H212.976L273.192 224.601H308.749H318.079C319.611 224.663 321.139 224.406 322.565 223.844C323.988 223.257 325.259 222.354 326.28 221.202C327.307 220.043 328.042 218.656 328.427 217.156C328.751 215.61 328.867 214.027 328.771 212.45V187.722L328.867 187.626L342.986 172.792L343.247 173.384L233.162 172.916L214.668 172.82H207.114C205.029 172.614 202.927 172.941 201.004 173.769C199.494 174.466 198.18 175.525 197.178 176.851C196.437 177.819 195.868 178.909 195.5 180.071C195.233 181.002 195.053 181.956 194.963 182.92Z" fill="#455A64"/>
<path d="M312.354 191.726L209.467 191.245L209.48 188.08L312.354 188.561V191.726Z" fill="#455A64"/>
<path d="M312.354 202.129L209.467 201.648L209.48 198.483L312.354 198.964V202.129Z" fill="#455A64"/>
<path d="M271.637 208.895L271.622 212.06L312.325 212.259L312.341 209.094L271.637 208.895Z" fill="#455A64"/>
<path d="M334.839 252.603V284.252C334.839 286.998 333.75 289.631 331.809 291.574C329.869 293.517 327.237 294.61 324.491 294.614H211.104C208.356 294.614 205.72 293.522 203.777 291.579C201.834 289.636 200.742 287 200.742 284.252V257.516L186.638 242.682L324.436 242.255C325.8 242.248 327.151 242.51 328.413 243.027C329.675 243.544 330.822 244.305 331.789 245.266C332.756 246.228 333.523 247.371 334.046 248.63C334.57 249.889 334.839 251.239 334.839 252.603Z" fill="#FF725E"/>
<path d="M217.462 261.41L320.349 260.928L320.336 257.763L217.448 258.245L217.462 261.41Z" fill="white"/>
<path d="M217.462 271.813L320.349 271.331L320.336 268.18L217.448 268.648L217.462 271.813Z" fill="white"/>
<path d="M258.13 278.597L217.427 278.796L217.442 281.961L258.146 281.762L258.13 278.597Z" fill="white"/>
<path d="M273.123 131.469C274.121 131.034 274.967 130.312 275.555 129.396C276.143 128.48 276.446 127.411 276.426 126.322C276.462 125.616 276.354 124.909 276.109 124.246C275.863 123.582 275.486 122.976 274.998 122.463C274.511 121.95 273.925 121.541 273.275 121.262C272.625 120.983 271.925 120.839 271.217 120.839C270.51 120.839 269.81 120.983 269.16 121.262C268.51 121.541 267.923 121.95 267.436 122.463C266.949 122.976 266.571 123.582 266.326 124.246C266.08 124.909 265.973 125.616 266.009 126.322C265.982 127.419 266.283 128.499 266.874 129.423C267.465 130.348 268.318 131.074 269.325 131.51C261.303 132.721 261.661 141.445 261.661 141.445L280.636 141.528C280.636 141.528 281.077 132.68 273.123 131.469Z" fill="#FF725E"/>
<path opacity="0.5" d="M273.123 131.469C274.121 131.034 274.967 130.312 275.555 129.396C276.143 128.48 276.446 127.411 276.426 126.322C276.462 125.616 276.354 124.909 276.109 124.246C275.863 123.582 275.486 122.976 274.998 122.463C274.511 121.95 273.925 121.541 273.275 121.262C272.625 120.983 271.925 120.839 271.217 120.839C270.51 120.839 269.81 120.983 269.16 121.262C268.51 121.541 267.923 121.95 267.436 122.463C266.949 122.976 266.571 123.582 266.326 124.246C266.08 124.909 265.973 125.616 266.009 126.322C265.982 127.419 266.283 128.499 266.874 129.423C267.465 130.348 268.318 131.074 269.325 131.51C261.303 132.721 261.661 141.445 261.661 141.445L280.636 141.528C280.636 141.528 281.077 132.68 273.123 131.469Z" fill="white"/>
<path d="M262.706 131.469C263.7 131.027 264.543 130.305 265.132 129.39C265.721 128.476 266.031 127.41 266.023 126.322C266.075 125.606 265.979 124.886 265.74 124.208C265.502 123.53 265.126 122.909 264.637 122.382C264.147 121.856 263.555 121.436 262.896 121.149C262.237 120.862 261.526 120.714 260.807 120.714C260.089 120.714 259.378 120.862 258.719 121.149C258.06 121.436 257.468 121.856 256.978 122.382C256.489 122.909 256.113 123.53 255.875 124.208C255.636 124.886 255.54 125.606 255.592 126.322C255.565 127.419 255.866 128.499 256.457 129.423C257.048 130.348 257.902 131.074 258.908 131.51C250.886 132.721 251.244 141.445 251.244 141.445L270.22 141.528C270.22 141.528 270.66 132.68 262.706 131.469Z" fill="#FF725E"/>
<path d="M291.723 145.382L240.713 145.151L240.684 151.48L291.694 151.712L291.723 145.382Z" fill="#FF725E"/>
<path opacity="0.3" d="M291.723 145.382L240.713 145.151L240.684 151.48L291.694 151.712L291.723 145.382Z" fill="white"/>
<path d="M197.344 324.667C197.319 324.42 197.319 324.171 197.344 323.924C197.427 323.181 197.666 322.463 198.045 321.819C198.676 320.751 199.644 319.923 200.797 319.466C202.392 319.031 204.051 318.886 205.696 319.039H237.249L343.495 319.259H344.307L343.701 319.824L329.803 334.74L329.899 334.492V344.469C329.899 345.212 329.899 345.845 329.899 346.67C329.842 347.83 329.44 348.947 328.744 349.876C328.047 350.806 327.089 351.505 325.991 351.886C325.27 352.13 324.51 352.242 323.748 352.216H308.928H276.852L222.608 352.106H204.045C203.249 352.149 202.45 352.103 201.664 351.968C200.556 351.727 199.545 351.161 198.761 350.343C197.976 349.524 197.454 348.49 197.261 347.372C197.18 346.692 197.152 346.006 197.178 345.322C197.178 342.694 197.178 340.299 197.178 338.139C197.178 333.832 197.178 330.488 197.247 328.176C197.247 327.062 197.247 326.208 197.247 325.589C197.247 324.97 197.247 324.709 197.247 324.709C197.247 324.709 197.247 325.011 197.247 325.589C197.247 326.167 197.247 327.062 197.247 328.176C197.247 330.488 197.247 333.832 197.316 338.139C197.316 340.299 197.316 342.694 197.316 345.322C197.293 345.984 197.325 346.647 197.412 347.303C197.593 348.348 198.083 349.314 198.819 350.077C199.555 350.84 200.503 351.364 201.541 351.583C202.301 351.697 203.071 351.734 203.839 351.693H211.6H222.608L276.907 351.61H323.79C324.467 351.635 325.143 351.537 325.785 351.322C327.075 350.869 328.134 349.924 328.73 348.693C329.024 348.082 329.192 347.417 329.225 346.739C329.225 346.051 329.225 345.294 329.225 344.579V334.465L329.321 334.368L343.247 319.48L343.495 320.071L237.263 319.617L205.71 319.411C204.096 319.233 202.464 319.354 200.894 319.768C200.003 320.121 199.219 320.7 198.621 321.448C198.022 322.196 197.63 323.088 197.481 324.034C197.446 324.248 197.4 324.459 197.344 324.667Z" fill="#455A64"/>
<path d="M316.964 333.006L214.076 332.538L214.09 329.374L316.978 329.855L316.964 333.006Z" fill="#455A64"/>
<path d="M275.234 339.817L275.218 342.982L316.967 343.186L316.983 340.021L275.234 339.817Z" fill="#455A64"/>
<path d="M331.22 381.113V402.786C331.22 404.246 330.64 405.646 329.608 406.678C328.576 407.71 327.176 408.29 325.716 408.29H204.54C203.08 408.29 201.68 407.71 200.648 406.678C199.616 405.646 199.036 404.246 199.036 402.786V390.938L185.124 376.049L325.716 375.609C327.176 375.609 328.576 376.189 329.608 377.221C330.64 378.253 331.22 379.653 331.22 381.113Z" fill="#FF725E"/>
<path d="M211.613 389.452L314.501 388.984L314.487 385.819L211.6 386.301L211.613 389.452Z" fill="white"/>
<path d="M211.613 399.635L314.501 399.154L314.487 396.002L211.6 396.47L211.613 399.635Z" fill="white"/>
<path d="M497.063 121.3C505.977 121.3 513.204 114.073 513.204 105.158C513.204 96.244 505.977 89.0173 497.063 89.0173C488.148 89.0173 480.922 96.244 480.922 105.158C480.922 114.073 488.148 121.3 497.063 121.3Z" fill="#FF725E"/>
<path opacity="0.5" d="M497.063 121.3C505.977 121.3 513.204 114.073 513.204 105.158C513.204 96.244 505.977 89.0173 497.063 89.0173C488.148 89.0173 480.922 96.244 480.922 105.158C480.922 114.073 488.148 121.3 497.063 121.3Z" fill="white"/>
<path d="M491.71 100.535C492.315 100.535 492.866 101.182 492.921 102.063C492.976 102.943 492.522 103.7 491.903 103.728C491.283 103.755 490.747 103.081 490.692 102.2C490.637 101.32 491.091 100.563 491.71 100.535Z" fill="#263238"/>
<path d="M493.21 96.4758C493.21 96.7097 491.834 96.6409 490.458 97.1638C489.082 97.6867 487.967 98.5398 487.802 98.3747C487.637 98.2096 488.476 96.9987 490.182 96.3932C491.889 95.7877 493.279 96.2694 493.21 96.4758Z" fill="#263238"/>
<path d="M504.906 103.053C504.727 103.191 503.86 102.255 502.471 102.118C501.081 101.98 500.035 102.682 499.897 102.517C499.76 102.351 500.008 102.118 500.462 101.801C501.089 101.407 501.83 101.233 502.567 101.306C503.302 101.386 503.987 101.716 504.507 102.241C504.893 102.654 504.989 102.984 504.906 103.053Z" fill="#263238"/>
<path d="M506.296 100.356C506.172 100.549 504.92 99.8745 503.117 99.8194C501.315 99.7644 500.008 100.315 499.897 100.095C500.313 99.6672 500.824 99.3454 501.389 99.1562C501.954 98.9671 502.556 98.9161 503.145 99.0075C505.154 99.0763 506.434 100.205 506.296 100.356Z" fill="#263238"/>
<path d="M505.154 104.842C505.162 105.958 504.804 107.045 504.136 107.938C503.432 109.115 502.444 110.097 501.262 110.792C500.08 111.487 498.743 111.873 497.372 111.916C496.002 111.958 494.642 111.655 493.42 111.035C492.197 110.414 491.15 109.496 490.375 108.365C489.643 107.522 489.22 106.453 489.178 105.337C489.651 106.299 490.204 107.219 490.829 108.09C491.596 109.071 492.584 109.858 493.712 110.387C494.84 110.915 496.077 111.171 497.322 111.132C498.567 111.093 499.786 110.761 500.879 110.163C501.972 109.565 502.908 108.718 503.613 107.69C504.193 106.778 504.707 105.826 505.154 104.842Z" fill="#263238"/>
<path d="M45.3992 390.677C45.2611 395.164 43.7957 399.51 41.1882 403.165C38.5806 406.82 34.948 409.62 30.7496 411.211C26.5511 412.801 21.9752 413.112 17.6004 412.102C13.2257 411.093 9.24832 408.809 6.17122 405.54C3.09412 402.27 1.0554 398.162 0.312765 393.734C-0.429867 389.306 0.156936 384.758 1.99899 380.663C3.84105 376.569 6.85565 373.112 10.6617 370.731C14.4678 368.349 18.8945 367.15 23.3823 367.284C26.3644 367.373 29.2997 368.049 32.0204 369.273C34.7412 370.497 37.194 372.245 39.2387 374.417C41.2835 376.59 42.88 379.144 43.937 381.934C44.9941 384.724 45.4909 387.695 45.3992 390.677Z" fill="#FF725E"/>
<path opacity="0.5" d="M45.3992 390.677C45.2611 395.164 43.7957 399.51 41.1882 403.165C38.5806 406.82 34.948 409.62 30.7496 411.211C26.5511 412.801 21.9752 413.112 17.6004 412.102C13.2257 411.093 9.24832 408.809 6.17122 405.54C3.09412 402.27 1.0554 398.162 0.312765 393.734C-0.429867 389.306 0.156936 384.758 1.99899 380.663C3.84105 376.569 6.85565 373.112 10.6617 370.731C14.4678 368.349 18.8945 367.15 23.3823 367.284C26.3644 367.373 29.2997 368.049 32.0204 369.273C34.7412 370.497 37.194 372.245 39.2387 374.417C41.2835 376.59 42.88 379.144 43.937 381.934C44.9941 384.724 45.4909 387.695 45.3992 390.677Z" fill="white"/>
<path d="M18.2358 383.741C17.8343 383.218 17.2444 382.872 16.5916 382.777C15.9388 382.682 15.2747 382.845 14.7406 383.232C14.2238 383.581 13.788 384.037 13.4627 384.568C13.1374 385.1 12.9303 385.696 12.8554 386.315C12.7976 385.684 12.6057 385.073 12.2924 384.522C11.9791 383.971 11.5518 383.494 11.039 383.122C10.5234 382.709 9.86858 382.51 9.21021 382.566C8.55185 382.623 7.94039 382.93 7.50253 383.425C7.02189 384.12 6.81596 384.968 6.92458 385.806C6.97091 386.646 7.24178 387.458 7.70894 388.159C9.10636 389.907 10.8194 391.377 12.7591 392.493C14.6713 391.482 16.368 390.108 17.7542 388.448C18.2599 387.777 18.5781 386.984 18.6761 386.15C18.8363 385.32 18.6791 384.461 18.2358 383.741Z" fill="#FF725E"/>
<path d="M38.2162 384.305C37.8149 383.781 37.2237 383.435 36.5699 383.343C35.9162 383.25 35.2522 383.418 34.721 383.81C34.2003 384.155 33.7617 384.609 33.4359 385.142C33.1102 385.674 32.9053 386.272 32.8358 386.892C32.778 386.262 32.5861 385.65 32.2728 385.1C31.9595 384.549 31.5322 384.072 31.0194 383.7C30.5051 383.283 29.8495 383.082 29.1902 383.139C28.5308 383.195 27.9189 383.505 27.4829 384.003C26.9998 384.696 26.7937 385.545 26.905 386.383C26.9444 387.225 27.2159 388.039 27.6893 388.736C29.0868 390.484 30.7998 391.955 32.7395 393.071C34.6458 392.051 36.3409 390.678 37.7346 389.025C38.2408 388.35 38.559 387.552 38.6565 386.714C38.8139 385.884 38.657 385.026 38.2162 384.305Z" fill="#FF725E"/>
<path d="M30.0699 395.575C29.8464 397.454 28.9199 399.178 27.4769 400.401C26.0339 401.624 24.1813 402.256 22.2917 402.169C20.4021 402.081 18.6155 401.282 17.2912 399.931C15.9669 398.581 15.2031 396.778 15.1534 394.887L30.0699 395.575Z" fill="white"/>
<path d="M447.731 535.754L444.979 521.223L418.903 525.847L422.687 547.63L424.324 547.451C431.604 546.584 461.148 542.07 465.689 539.69C470.821 537.034 447.731 535.754 447.731 535.754Z" fill="#FF725E"/>
<path d="M466.17 538.245C466.17 538.493 456.538 540.488 444.484 542.703C432.429 544.919 422.687 546.515 422.646 546.267C422.604 546.02 432.278 544.038 444.318 541.823C456.359 539.607 466.088 538.011 466.17 538.245Z" fill="#263238"/>
<path d="M448.736 538.616C448.502 538.534 448.543 537.736 448.97 536.882C449.396 536.029 449.988 535.506 450.194 535.63C450.401 535.754 450.194 536.47 449.768 537.268C449.341 538.066 448.97 538.713 448.736 538.616Z" fill="#263238"/>
<path d="M450.58 539.29C450.332 539.29 450.291 538.369 450.58 537.364C450.869 536.36 451.502 535.699 451.722 535.809C451.942 535.919 451.722 536.731 451.433 537.653C451.144 538.575 450.827 539.332 450.58 539.29Z" fill="#263238"/>
<path d="M430.393 544.726C430.296 544.823 429.842 544.506 429.154 543.969C428.302 543.259 427.38 542.637 426.402 542.112C425.516 541.626 424.523 541.371 423.512 541.369C422.701 541.369 422.205 541.63 422.136 541.506C422.068 541.382 422.494 540.97 423.43 540.736C424.64 540.495 425.896 540.684 426.98 541.272C428.026 541.835 428.959 542.586 429.732 543.488C430.228 544.121 430.517 544.644 430.393 544.726Z" fill="#263238"/>
<path d="M448.282 535.865C448.447 536.043 448.089 536.635 447.401 537.048C446.713 537.461 446.025 537.488 445.942 537.254C445.86 537.02 446.341 536.635 446.947 536.264C447.552 535.892 448.144 535.699 448.282 535.865Z" fill="#263238"/>
<path d="M447.649 534.557C447.649 534.805 447.057 535.135 446.176 535.314C445.295 535.493 444.566 535.424 444.539 535.176C444.511 534.929 445.172 534.598 445.997 534.433C446.823 534.268 447.58 534.323 447.649 534.557Z" fill="#263238"/>
<path d="M479.105 382.117C471.028 365.811 427.737 302.732 427.737 302.732L404.633 305.154V305.017L378.777 307.851L364.521 309.42L416.137 534.86L451.832 534.213L443.245 492.505C449.148 477.712 483.577 391.144 479.105 382.117ZM442.282 391.846L429.526 426.096L415.077 355.917L442.282 391.846Z" fill="#263238"/>
<path d="M413.646 198.606C413.316 196.253 414.582 186.469 414.582 186.469C414.582 186.469 423.567 185.809 424.407 176.947C425.246 168.085 425.343 147.568 425.343 147.568L409.284 139.064L390.886 152.081L386.125 164.466L392.4 179.85L392.207 184.942V196.597L413.646 198.606Z" fill="#FFBE9D"/>
<path d="M424.145 162.43C424.14 162.656 424.067 162.876 423.936 163.061C423.806 163.245 423.623 163.387 423.412 163.468C423.2 163.549 422.969 163.565 422.749 163.515C422.528 163.464 422.327 163.349 422.172 163.184C422.017 163.019 421.914 162.812 421.877 162.589C421.84 162.365 421.87 162.136 421.964 161.93C422.057 161.723 422.21 161.55 422.402 161.43C422.595 161.311 422.818 161.252 423.045 161.26C423.194 161.264 423.341 161.297 423.478 161.358C423.614 161.419 423.737 161.506 423.84 161.615C423.942 161.724 424.022 161.852 424.074 161.992C424.127 162.131 424.151 162.28 424.145 162.43Z" fill="#263238"/>
<path d="M424.228 161.232C424.077 161.384 423.251 160.641 422.04 160.531C420.829 160.421 419.88 160.985 419.756 160.82C419.632 160.654 419.852 160.476 420.265 160.214C420.819 159.881 421.466 159.736 422.109 159.801C422.748 159.855 423.352 160.116 423.829 160.544C424.187 160.888 424.297 161.177 424.228 161.232Z" fill="#263238"/>
<path d="M409.752 161.04C409.934 161.173 410.073 161.358 410.15 161.57C410.228 161.782 410.241 162.012 410.187 162.232C410.134 162.451 410.017 162.65 409.85 162.803C409.684 162.956 409.476 163.056 409.253 163.09C409.03 163.125 408.801 163.093 408.596 162.997C408.391 162.902 408.219 162.748 408.102 162.555C407.985 162.362 407.927 162.139 407.937 161.913C407.946 161.688 408.022 161.47 408.156 161.288C408.244 161.166 408.356 161.064 408.484 160.986C408.612 160.908 408.754 160.856 408.903 160.833C409.051 160.81 409.202 160.817 409.348 160.852C409.494 160.887 409.631 160.951 409.752 161.04Z" fill="#263238"/>
<path d="M410.646 160.806C410.495 160.943 409.683 160.2 408.458 160.104C407.234 160.008 406.298 160.558 406.174 160.379C406.05 160.2 406.27 160.049 406.683 159.788C407.237 159.453 407.883 159.303 408.527 159.361C409.172 159.419 409.78 159.684 410.261 160.118C410.619 160.448 410.729 160.737 410.646 160.806Z" fill="#263238"/>
<path d="M414.733 171.292C415.392 171.145 416.067 171.08 416.742 171.099C417.059 171.099 417.361 171.099 417.444 170.837C417.486 170.495 417.433 170.148 417.293 169.833C417.059 169.021 416.811 168.168 416.536 167.273C415.821 165.093 415.269 162.862 414.885 160.6C415.191 161.2 415.431 161.832 415.6 162.485C415.985 163.668 416.495 165.306 416.976 167.136C417.224 168.03 417.472 168.897 417.692 169.709C417.866 170.118 417.895 170.575 417.774 171.003C417.725 171.11 417.65 171.203 417.557 171.275C417.463 171.347 417.354 171.395 417.238 171.415C417.06 171.441 416.879 171.441 416.701 171.415C416.042 171.452 415.382 171.411 414.733 171.292Z" fill="#263238"/>
<path d="M410.66 172.31C409.435 171.457 414.004 174.47 416.508 174.539C416.04 175.155 415.376 175.593 414.626 175.781C413.875 175.969 413.083 175.894 412.38 175.571C409.834 174.374 410.66 172.31 410.66 172.31Z" fill="white"/>
<path d="M414.582 186.469C410.366 186.159 406.327 184.65 402.94 182.121C402.94 182.121 405.39 188.726 414.32 188.643L414.582 186.469Z" fill="#EB996E"/>
<path d="M393.446 166.943C393.446 166.943 393.322 167.039 393.102 167.163C392.791 167.309 392.438 167.333 392.111 167.232C391.603 166.953 391.179 166.543 390.883 166.044C390.588 165.546 390.432 164.977 390.432 164.397C390.37 163.749 390.455 163.095 390.68 162.484C390.737 162.245 390.852 162.022 391.015 161.838C391.178 161.653 391.384 161.511 391.615 161.425C391.763 161.373 391.924 161.375 392.07 161.43C392.216 161.485 392.338 161.591 392.414 161.728C392.524 161.934 392.482 162.099 392.524 162.099C392.565 162.099 392.689 161.962 392.606 161.659C392.553 161.474 392.436 161.313 392.276 161.205C392.169 161.131 392.048 161.079 391.92 161.053C391.792 161.027 391.661 161.027 391.533 161.053C391.226 161.133 390.945 161.29 390.716 161.509C390.488 161.729 390.319 162.003 390.226 162.306C389.944 162.984 389.831 163.72 389.895 164.452C389.903 165.129 390.11 165.788 390.489 166.348C390.868 166.908 391.403 167.345 392.028 167.603C392.233 167.651 392.447 167.651 392.652 167.603C392.857 167.556 393.049 167.462 393.212 167.328C393.446 167.08 393.473 166.957 393.446 166.943Z" fill="#EB996E"/>
<path d="M427.641 149.041C427.156 149.203 426.651 149.3 426.141 149.33C427.814 148.451 429.188 147.096 430.09 145.435C430.749 144.288 431.096 142.988 431.096 141.665C431.096 140.342 430.749 139.042 430.09 137.895C429.38 136.785 428.286 135.975 427.017 135.62C425.748 135.265 424.393 135.389 423.21 135.968C423.666 135.021 423.762 133.941 423.481 132.929C423.2 131.916 422.561 131.04 421.682 130.464C420.769 129.922 419.746 129.593 418.689 129.5C417.631 129.407 416.566 129.553 415.573 129.927C413.591 130.691 411.735 131.749 410.068 133.065C409.944 132.353 409.65 131.681 409.212 131.106C408.774 130.532 408.204 130.071 407.55 129.762C406.236 129.152 404.765 128.964 403.339 129.225C401.269 129.58 399.358 130.562 397.864 132.039C396.37 133.516 395.365 135.416 394.987 137.482C394.337 136.816 393.527 136.328 392.634 136.066C391.741 135.803 390.796 135.775 389.889 135.984C388.983 136.193 388.145 136.631 387.457 137.257C386.768 137.884 386.253 138.676 385.96 139.56C385.966 139.624 385.966 139.688 385.96 139.752C385.135 140.11 384.442 140.716 383.978 141.486C383.587 142.143 383.346 142.879 383.272 143.64C383.198 144.401 383.294 145.169 383.552 145.889C384.079 147.304 385.043 148.514 386.304 149.343C386.787 149.683 387.214 150.096 387.57 150.568C387.842 150.98 388.008 151.453 388.051 151.944C387.928 154.916 386.414 157.724 385.671 160.641C384.653 164.686 386.896 170.204 388.189 174.167C389.483 178.13 389.937 179.672 392.455 179.988L392.84 169.337C390.088 171.594 386.414 163.833 388.822 160.737C391.23 157.641 393.79 158.701 394.23 160.655C394.4 161.405 394.616 162.145 394.877 162.87H397.629L397.326 160.544C397.326 160.544 396.762 150.21 401.702 149.536C402.991 149.262 404.337 149.51 405.445 150.224C407.037 150.865 408.761 151.106 410.467 150.926C412.229 150.926 414.596 148.917 414.596 147.169C415.604 148.345 416.881 149.26 418.318 149.838C419.755 150.415 421.311 150.637 422.852 150.485C423.649 150.402 424.431 150.212 425.177 149.921C426.108 150.179 427.095 150.155 428.012 149.852C428.957 149.546 429.783 148.955 430.379 148.16C430.819 147.541 430.902 147.073 430.819 147.032C429.913 147.918 428.83 148.602 427.641 149.041ZM386.634 148.71C385.513 147.931 384.658 146.826 384.185 145.545C383.962 144.924 383.874 144.263 383.929 143.605C383.984 142.948 384.179 142.309 384.501 141.734C384.79 141.182 385.211 140.709 385.726 140.358C385.258 143.481 387.295 146.646 387.831 149.908C387.5 149.464 387.117 149.062 386.689 148.71H386.634Z" fill="#FF725E"/>
<path d="M474.95 161.962V179.699C474.95 181.63 475.716 183.481 477.082 184.846C478.447 186.211 480.298 186.978 482.229 186.978H512.956V197.12L518.46 187.419C520.091 187.3 521.616 186.569 522.729 185.372C523.843 184.174 524.461 182.6 524.46 180.965V161.962C524.458 160.999 524.266 160.046 523.893 159.158C523.52 158.27 522.975 157.465 522.289 156.789C521.603 156.113 520.79 155.58 519.896 155.221C519.003 154.862 518.047 154.683 517.084 154.696H482.229C480.301 154.696 478.451 155.461 477.086 156.823C475.722 158.185 474.953 160.033 474.95 161.962Z" fill="#FF725E"/>
<path d="M491.669 171.773C491.669 172.366 491.493 172.946 491.163 173.44C490.833 173.933 490.365 174.317 489.817 174.544C489.269 174.772 488.665 174.831 488.084 174.715C487.502 174.599 486.967 174.314 486.548 173.894C486.128 173.475 485.842 172.94 485.727 172.358C485.611 171.776 485.67 171.173 485.897 170.625C486.124 170.077 486.509 169.608 487.002 169.279C487.496 168.949 488.076 168.773 488.669 168.773C489.464 168.773 490.227 169.089 490.79 169.652C491.353 170.214 491.669 170.977 491.669 171.773Z" fill="white"/>
<path d="M503.062 171.773C503.062 172.366 502.886 172.946 502.557 173.44C502.227 173.933 501.759 174.317 501.211 174.544C500.662 174.772 500.059 174.831 499.477 174.715C498.895 174.599 498.361 174.314 497.941 173.894C497.522 173.475 497.236 172.94 497.12 172.358C497.005 171.776 497.064 171.173 497.291 170.625C497.518 170.077 497.903 169.608 498.396 169.279C498.889 168.949 499.469 168.773 500.063 168.773C500.858 168.773 501.621 169.089 502.184 169.652C502.746 170.214 503.062 170.977 503.062 171.773Z" fill="white"/>
<path d="M514.456 171.773C514.456 172.366 514.28 172.946 513.951 173.44C513.621 173.933 513.152 174.317 512.604 174.544C512.056 174.772 511.453 174.831 510.871 174.715C510.289 174.599 509.755 174.314 509.335 173.894C508.916 173.475 508.63 172.94 508.514 172.358C508.398 171.776 508.458 171.173 508.685 170.625C508.912 170.077 509.296 169.608 509.79 169.279C510.283 168.949 510.863 168.773 511.456 168.773C512.252 168.773 513.015 169.089 513.578 169.652C514.14 170.214 514.456 170.977 514.456 171.773Z" fill="white"/>
<path d="M499.196 214.679C498.576 213.303 459.496 247.8 451.708 248.984L428.92 219.289C428.92 219.289 424.187 211.789 414.018 198.937C407.468 190.68 389.372 192.359 384.611 202.473C376.534 219.633 376.259 242.379 370.011 278.927L364.727 309.929C364.727 309.929 372.529 309.008 372.502 309.076L427.985 303.311L429.361 266.157C440.369 277.276 443.727 279.601 449.437 278.721C463.79 276.491 514.002 231.329 514.002 231.329C514.002 231.329 499.801 216.082 499.196 214.679Z" fill="#455A64"/>
<path d="M507.232 237.645C506.229 237.035 505.305 236.305 504.48 235.471C500.187 231.659 496.445 227.268 493.361 222.426C492.665 221.456 492.097 220.402 491.669 219.288C492.413 220.181 493.089 221.129 493.691 222.123C494.957 223.898 496.76 226.32 498.92 228.852C501.081 231.384 503.172 233.544 504.727 235.085C505.632 235.868 506.469 236.724 507.232 237.645Z" fill="#263238"/>
<path d="M449.492 260.749C449.728 256.759 450.43 252.81 451.584 248.984C451.366 252.976 450.664 256.926 449.492 260.749Z" fill="#263238"/>
<path d="M454.474 259.524C453.668 257.907 453.08 256.191 452.726 254.419C452.136 252.714 451.779 250.936 451.667 249.135C452.466 250.755 453.053 252.471 453.414 254.24C453.997 255.948 454.353 257.724 454.474 259.524Z" fill="#263238"/>
<path opacity="0.2" d="M399.899 227.173L428.783 281.775L429.43 265.579L399.899 227.173Z" fill="black"/>
<path d="M398.028 224.518C398.532 225.028 398.992 225.581 399.404 226.169L402.844 230.779C405.748 234.687 409.807 240.039 414.362 245.915L426.058 260.901L429.567 265.469C430.019 266.011 430.425 266.591 430.778 267.203C430.278 266.723 429.818 266.203 429.402 265.648C428.453 264.492 427.214 263.006 425.714 261.217C422.632 257.447 418.407 252.218 413.853 246.356C409.298 240.494 405.293 235.072 402.486 231.095C401.11 229.1 399.968 227.476 399.225 226.334C398.772 225.766 398.371 225.158 398.028 224.518Z" fill="#263238"/>
<path d="M398.936 241.58C398.701 241.048 398.53 240.489 398.427 239.915C398.152 238.828 397.794 237.273 397.367 235.361L397.794 235.567L392.111 238.636L391.726 238.842L391.602 238.415C391.395 237.672 391.175 236.888 390.941 236.09L389.95 232.526L390.46 232.732L384.859 235.884L384.515 236.076V235.691C384.189 233.993 383.996 232.272 383.937 230.544C384.435 232.201 384.803 233.894 385.038 235.608L384.639 235.416L390.143 232.127L390.528 231.893L390.652 232.333C390.969 233.475 391.313 234.673 391.657 235.897C391.891 236.695 392.111 237.48 392.317 238.223L391.808 238.016L397.546 235.03L397.89 234.838L397.959 235.223C398.317 237.136 398.606 238.718 398.771 239.819C398.9 240.397 398.956 240.989 398.936 241.58Z" fill="#263238"/>
<path d="M405.72 210.715C405.171 210.505 404.653 210.223 404.179 209.876C403.229 209.284 401.895 208.417 400.271 207.344L400.711 207.193C400.133 209.023 399.487 211.114 398.785 213.357L398.647 213.784L398.262 213.564L396.17 212.339L392.978 210.468L393.487 210.261L391.657 216.426L391.547 216.798L391.244 216.564C389.832 215.566 388.498 214.462 387.253 213.261C388.758 214.113 390.197 215.074 391.56 216.137L391.148 216.275C391.629 214.458 392.193 212.367 392.813 210.082L392.936 209.642L393.322 209.876L396.528 211.72L398.62 212.945L398.11 213.137L400.119 206.986L400.257 206.615L400.574 206.835C402.156 207.963 403.45 208.899 404.344 209.587C404.847 209.905 405.31 210.284 405.72 210.715Z" fill="#263238"/>
<path d="M425.989 221.325C425.505 220.992 425.066 220.599 424.682 220.155C423.884 219.371 422.756 218.229 421.407 216.825H421.875C420.912 218.49 419.811 220.375 418.641 222.426L418.421 222.797L418.091 222.495L416.316 220.857L413.564 218.339L414.114 218.243C412.958 220.32 411.899 222.206 410.977 223.843L410.784 224.187L410.536 223.898C409.379 222.603 408.321 221.223 407.371 219.77C408.654 220.928 409.85 222.179 410.949 223.513H410.509L413.495 217.83L413.715 217.431L414.045 217.733L416.797 220.252L418.559 221.903H418.022L421.352 216.399L421.558 216.068L421.82 216.357C423.196 217.733 424.187 218.999 424.902 219.853C425.331 220.29 425.697 220.786 425.989 221.325Z" fill="#E0E0E0"/>
<path d="M479.436 256.071C479.436 256.071 478.968 255.63 478.28 254.763C477.592 253.896 476.615 252.617 475.459 251.048H475.927L472.019 256.194L471.743 256.538L471.468 256.208L469.899 254.351L467.546 251.516H468.097L464.285 256.676L464.051 256.993L463.845 256.676C462.861 255.256 461.982 253.766 461.216 252.218C462.344 253.513 463.37 254.893 464.285 256.346H463.845C464.932 254.818 466.17 253.043 467.533 251.089L467.794 250.731L468.083 251.075L470.464 253.91L472.019 255.768H471.468L475.472 250.704L475.72 250.387L475.94 250.704C477.055 252.314 477.949 253.635 478.569 254.571C478.911 255.038 479.202 255.541 479.436 256.071Z" fill="#263238"/>
<path d="M446.341 253.291C445.847 253.008 445.385 252.671 444.965 252.286C444.085 251.598 442.832 250.594 441.332 249.369L441.787 249.259L439.172 255.148L439.007 255.547L438.649 255.286L436.681 253.91L433.695 251.708L434.232 251.557C433.324 253.759 432.498 255.685 431.769 257.488L431.617 257.859L431.342 257.584C430.04 256.452 428.83 255.219 427.723 253.896C429.131 254.895 430.46 255.999 431.7 257.199L431.273 257.295C431.948 255.534 432.732 253.511 433.585 251.309L433.75 250.883L434.108 251.144L437.108 253.318L439.062 254.694L438.525 254.846L441.195 248.956L441.36 248.598L441.649 248.846C443.108 250.14 444.305 251.199 445.13 251.956C445.956 252.713 446.383 253.236 446.341 253.291Z" fill="#E0E0E0"/>
<path d="M493.691 245.516C493.504 244.964 493.384 244.391 493.334 243.81C493.169 242.696 492.948 241.058 492.701 239.187L493.114 239.421L487.169 241.98L486.77 242.145L486.687 241.719C486.55 240.948 486.398 240.15 486.247 239.338C486.013 238.072 485.793 236.861 485.586 235.691L486.068 235.939L480.22 238.636L479.862 238.788V238.402C479.693 236.683 479.661 234.953 479.766 233.228C480.108 234.925 480.315 236.646 480.385 238.375L480.013 238.141L485.807 235.389L486.206 235.182L486.288 235.636C486.508 236.806 486.742 238.017 486.976 239.269C487.128 240.095 487.265 240.893 487.403 241.65L486.921 241.388L492.907 238.953L493.279 238.801V239.187C493.458 241.127 493.595 242.723 493.664 243.838C493.737 244.394 493.746 244.958 493.691 245.516Z" fill="#E0E0E0"/>
<path d="M427.723 230.847C427.273 231.204 426.783 231.509 426.265 231.755C425.301 232.306 423.898 233.131 422.136 233.998L422.219 233.53L426.719 238.168L427.021 238.484L426.65 238.718L424.586 239.97L421.421 241.897V241.346L425.962 245.887L426.237 246.176L425.879 246.328C424.331 247.093 422.725 247.737 421.077 248.254C422.543 247.335 424.074 246.526 425.659 245.832L425.59 246.273L420.939 241.842L420.609 241.539L420.994 241.305L424.159 239.365L426.223 238.113V238.649C424.613 236.943 423.113 235.333 421.806 233.93L421.531 233.641L421.889 233.475C423.636 232.622 425.081 231.92 426.086 231.466C426.602 231.188 427.152 230.98 427.723 230.847Z" fill="#263238"/>
<path d="M452.974 260.749C452.523 261.123 452.029 261.442 451.501 261.698C450.538 262.249 449.135 263.075 447.373 263.928L447.442 263.474L451.956 268.111L452.258 268.414L451.887 268.648L449.823 269.914L446.644 271.826L446.713 271.29L451.254 275.831L451.529 276.106L451.171 276.257C449.62 277.02 448.015 277.668 446.369 278.197C447.862 277.28 449.421 276.475 451.034 275.789L450.951 276.23L446.314 271.799L445.983 271.482L446.369 271.248L449.52 269.322L451.598 268.056L451.529 268.606L447.112 263.886L446.837 263.597L447.181 263.432C448.928 262.565 450.373 261.877 451.391 261.41C451.888 261.122 452.42 260.9 452.974 260.749Z" fill="#E0E0E0"/>
<path d="M402.872 260.35C402.641 259.811 402.47 259.248 402.362 258.671C402.087 257.584 401.729 256.029 401.303 254.13L401.729 254.323L395.991 257.419L395.606 257.639L395.496 257.213C395.276 256.456 395.056 255.671 394.835 254.873C394.491 253.649 394.147 252.451 393.831 251.309L394.34 251.516L388.753 254.667L388.409 254.86V254.474C388.093 252.78 387.9 251.064 387.831 249.342C388.333 250.993 388.701 252.682 388.932 254.392L388.533 254.199L394.037 250.91L394.423 250.69L394.546 251.117C394.863 252.259 395.207 253.456 395.565 254.681L396.211 257.02L395.702 256.8L401.44 253.814L401.785 253.635L401.867 254.006C402.225 255.919 402.5 257.502 402.679 258.602C402.812 259.175 402.877 259.762 402.872 260.35Z" fill="#E0E0E0"/>
<path d="M425.797 273.34C425.563 272.802 425.392 272.239 425.288 271.661C425.012 270.574 424.655 269.019 424.228 267.12L424.655 267.313L418.985 270.409L418.6 270.629L418.476 270.203C418.256 269.446 418.036 268.662 417.816 267.877C417.472 266.639 417.141 265.442 416.811 264.3L417.32 264.506L411.733 267.657L411.389 267.85V267.478C411.074 265.779 410.88 264.059 410.811 262.332C411.311 263.984 411.679 265.672 411.912 267.382L411.513 267.203L417.017 263.914L417.403 263.68L417.527 264.121C417.857 265.263 418.187 266.446 418.545 267.671L419.192 270.01L418.696 269.79L424.421 266.804L424.778 266.625L424.847 266.997C425.205 268.909 425.48 270.492 425.659 271.593C425.783 272.166 425.829 272.754 425.797 273.34Z" fill="#263238"/>
<path d="M392.152 301.934C391.917 301.402 391.746 300.843 391.643 300.269C391.368 299.182 391.01 297.627 390.583 295.728L391.01 295.921L385.341 299.017L384.955 299.224L384.831 298.797C384.611 298.054 384.391 297.27 384.171 296.471L383.18 292.907L383.676 293.114L378.103 296.32L377.759 296.513V296.127C377.441 294.428 377.248 292.708 377.181 290.981C377.678 292.638 378.047 294.331 378.281 296.045L377.882 295.852L383.387 292.563L383.772 292.329L383.896 292.77C384.226 293.912 384.556 295.109 384.914 296.334L385.561 298.659L385.065 298.453L390.79 295.467L391.148 295.274L391.216 295.66C391.574 297.572 391.849 299.155 392.028 300.256C392.15 300.806 392.192 301.372 392.152 301.934Z" fill="#E0E0E0"/>
<path d="M392.813 271.923C392.291 271.655 391.805 271.322 391.368 270.932C390.473 270.271 389.207 269.281 387.694 268.056L388.148 267.946L385.657 273.918L385.492 274.317L385.134 274.055C384.487 273.615 383.827 273.133 383.153 272.679L380.153 270.519L380.676 270.368L378.281 276.326L378.13 276.684L377.855 276.422C376.546 275.295 375.318 274.076 374.181 272.776C375.608 273.75 376.956 274.836 378.213 276.023L377.786 276.133C378.433 274.372 379.162 272.335 380.029 270.12L380.18 269.693L380.552 269.955L383.607 272.074L385.575 273.45L385.052 273.588L387.652 267.671L387.818 267.313L388.106 267.56C389.579 268.84 390.79 269.886 391.615 270.643C392.063 271.021 392.465 271.45 392.813 271.923Z" fill="#263238"/>
<path d="M404.812 272.734C404.398 273.139 403.936 273.49 403.436 273.78C402.514 274.399 401.165 275.266 399.514 276.298V275.831L404.344 280.138L404.66 280.44L404.303 280.688L402.335 282.064L399.308 284.197V283.66L404.248 287.899L404.537 288.16L404.206 288.339C402.711 289.208 401.151 289.963 399.542 290.596C400.941 289.573 402.413 288.653 403.945 287.843V288.284L398.991 284.156L398.647 283.867L399.019 283.605L402.032 281.459L404 280.083V280.633L399.266 276.243L398.977 275.968L399.308 275.775C400.986 274.798 402.376 274 403.367 273.464C403.816 273.161 404.302 272.916 404.812 272.734Z" fill="#263238"/>
<path d="M418.008 282.119C417.75 282.644 417.427 283.134 417.045 283.578C416.384 284.486 415.407 285.752 414.21 287.293L414.1 286.839L420.1 289.247L420.499 289.398L420.251 289.77L418.875 291.765L416.756 294.806L416.591 294.27L422.577 296.581L422.948 296.733L422.687 297.008C421.585 298.34 420.379 299.582 419.082 300.723C420.051 299.295 421.123 297.938 422.288 296.664L422.398 297.091L416.357 294.93L415.93 294.779L416.192 294.407C416.852 293.43 417.568 292.412 418.283 291.352C418.765 290.678 419.219 289.976 419.66 289.371L419.811 289.894L413.88 287.376L413.522 287.224L413.77 286.922C415.022 285.422 416.054 284.169 416.797 283.371C417.54 282.573 418.008 282.078 418.008 282.119Z" fill="#E0E0E0"/>
<path d="M410.522 304.549C410.522 304.549 410.523 304.7 410.674 305.003C410.825 305.306 410.908 305.787 411.073 306.379C411.403 307.576 411.899 309.351 412.449 311.649C412.999 313.947 413.701 316.754 414.183 320.098C414.511 321.921 414.266 323.801 413.481 325.479C412.61 327.338 411.418 329.029 409.958 330.474V330.24C413.564 347.358 418.614 371.343 424.214 397.873C429.65 424.018 434.507 447.618 437.975 464.75C439.695 473.309 441.057 480.244 441.952 485.046C442.406 487.441 442.736 489.312 442.942 490.551C443.093 491.191 443.167 491.847 443.163 492.505C443.163 492.505 443.052 491.844 442.805 490.578C442.557 489.312 442.158 487.427 441.676 485.074C440.672 480.244 439.241 473.336 437.479 464.818C433.902 447.686 428.989 424.073 423.554 397.997C418.05 371.439 413.068 347.441 409.518 330.322V330.185L409.614 330.088C412.532 327.157 414.499 323.456 413.742 320.126C413.302 316.81 412.628 313.975 412.119 311.677C411.61 309.379 411.169 307.645 410.866 306.393L410.536 305.017C410.513 304.862 410.509 304.705 410.522 304.549Z" fill="#455A64"/>
<path d="M381.543 307.852C381.543 307.852 381.763 308.154 381.969 308.787C382.263 309.678 382.439 310.603 382.492 311.539C382.72 314.683 381.772 317.799 379.832 320.283C377.892 322.768 375.098 324.443 371.993 324.984C371.086 325.153 370.161 325.208 369.241 325.149C368.897 325.155 368.556 325.094 368.236 324.97C368.236 324.832 369.695 324.97 371.938 324.488C374.863 323.845 377.471 322.201 379.313 319.839C381.154 317.477 382.113 314.547 382.024 311.553C381.937 310.311 381.776 309.075 381.543 307.852Z" fill="#455A64"/>
<path d="M404.592 309.324C404.592 309.324 404.592 309.117 404.922 308.938C405.128 308.819 405.356 308.742 405.592 308.711C405.828 308.681 406.068 308.697 406.298 308.76C406.654 308.847 406.975 309.039 407.221 309.312C407.466 309.584 407.624 309.924 407.674 310.287C407.741 310.742 407.654 311.207 407.426 311.607C407.199 312.007 406.845 312.319 406.419 312.495C405.994 312.67 405.522 312.699 405.079 312.576C404.635 312.452 404.246 312.184 403.972 311.814C403.747 311.528 403.606 311.184 403.565 310.822C403.524 310.46 403.584 310.094 403.739 309.764C404.303 308.649 405.211 308.622 405.183 308.705C405.156 308.787 404.523 309.035 404.22 309.943C404.131 310.188 404.108 310.451 404.154 310.708C404.2 310.964 404.313 311.203 404.482 311.402C404.687 311.633 404.955 311.799 405.253 311.88C405.551 311.961 405.867 311.952 406.16 311.856C406.436 311.723 406.665 311.51 406.818 311.245C406.97 310.98 407.038 310.674 407.014 310.37C406.995 310.113 406.9 309.869 406.74 309.668C406.581 309.466 406.364 309.318 406.119 309.241C405.614 309.105 405.079 309.134 404.592 309.324Z" fill="#455A64"/>
<path d="M433.682 312.379C432.897 312.932 431.971 313.252 431.012 313.301C428.698 313.648 426.337 313.141 424.37 311.875C422.402 310.609 420.963 308.67 420.32 306.42C419.989 305.543 419.899 304.592 420.059 303.668C420.182 303.668 420.21 304.742 420.788 306.324C421.517 308.391 422.91 310.157 424.75 311.347C426.59 312.538 428.773 313.084 430.957 312.902C432.636 312.681 433.64 312.269 433.682 312.379Z" fill="#455A64"/>
<path d="M448.791 522.764C448.343 522.888 447.879 522.943 447.415 522.929L443.672 523.136L431.287 523.728L418.903 524.374L415.146 524.526C414.69 524.591 414.226 524.591 413.77 524.526C414.214 524.374 414.678 524.291 415.146 524.278C416.013 524.168 417.293 524.03 418.875 523.893C422.026 523.604 426.402 523.287 431.26 523.04C436.117 522.792 440.479 522.682 443.644 522.668C445.227 522.668 446.506 522.668 447.401 522.668C447.866 522.636 448.334 522.668 448.791 522.764Z" fill="#455A64"/>
<path d="M385.974 323.552C386.166 323.552 396.982 368.178 410.178 423.316C423.375 478.455 433.874 523.218 433.682 523.26C433.489 523.301 422.673 478.648 409.477 423.482C396.28 368.315 385.781 323.594 385.974 323.552Z" fill="#455A64"/>
<path d="M421.187 325.328C421.281 325.418 421.364 325.52 421.435 325.63L422.109 326.525L424.668 330.034L433.943 342.982L447.635 362.247L455.685 373.655C458.437 377.618 461.189 382.063 461.918 387.292C462.648 392.521 461.12 397.571 459.538 402.098C457.955 406.625 456.221 411.029 454.625 415.17C451.405 423.427 448.35 430.885 445.694 437.064C443.039 443.242 440.796 448.21 439.227 451.622L437.369 455.544L436.874 456.549C436.75 456.769 436.695 456.893 436.681 456.879C436.705 456.754 436.747 456.634 436.805 456.521C436.915 456.246 437.067 455.902 437.246 455.475L438.966 451.512C440.465 448.058 442.64 443.063 445.227 436.871C447.814 430.679 450.827 423.248 454.006 414.937C455.588 410.808 457.226 406.419 458.863 401.864C460.501 397.309 461.932 392.424 461.216 387.388C460.501 382.351 457.79 378.003 455.107 374.054L447.098 362.633L433.53 343.216L424.434 330.13L421.999 326.552C421.737 326.167 421.531 325.864 421.38 325.617C421.228 325.369 421.173 325.328 421.187 325.328Z" fill="#455A64"/>
<path d="M491.118 216.082L521.846 193.652L523.359 196.06L492.825 218.765L491.118 216.082Z" fill="#263238"/>
<path d="M498.714 215.394C498.714 215.394 502.842 204.661 503.764 202.377C504.686 200.093 506.255 196.116 506.847 196.033C507.438 195.951 509.599 196.281 506.778 203.106C503.957 209.931 510.094 205.762 510.094 205.762L516.011 201.524C516.011 201.524 520.69 215.504 518.034 219.715C515.943 222.866 513.596 225.84 511.016 228.604L498.714 215.394Z" fill="#FFBE9D"/>
<path d="M108.739 393.305C109.138 390.979 108.258 382.475 108.258 382.475C108.258 382.475 99.3407 381.526 98.804 372.692C98.2673 363.857 98.804 343.464 98.804 343.464L115.041 335.524L132.93 349.051L130.178 393.264L108.739 393.305Z" fill="#B78876"/>
<path d="M101.267 358.243C101.267 358.542 101.386 358.829 101.598 359.04C101.809 359.252 102.096 359.371 102.396 359.371C102.695 359.371 102.982 359.252 103.193 359.04C103.405 358.829 103.524 358.542 103.524 358.243C103.524 358.094 103.495 357.948 103.438 357.811C103.381 357.674 103.298 357.55 103.193 357.445C103.089 357.34 102.964 357.257 102.827 357.2C102.69 357.143 102.544 357.114 102.396 357.114C102.247 357.114 102.101 357.143 101.964 357.2C101.827 357.257 101.702 357.34 101.598 357.445C101.493 357.55 101.41 357.674 101.353 357.811C101.296 357.948 101.267 358.094 101.267 358.243Z" fill="#263238"/>
<path d="M99.6159 357.431C99.7535 357.569 100.593 356.867 101.804 356.798C103.015 356.729 103.937 357.321 104.074 357.156C104.212 356.991 103.978 356.812 103.579 356.537C103.042 356.184 102.404 356.015 101.763 356.055C101.121 356.099 100.509 356.345 100.015 356.757C99.6572 357.073 99.5334 357.362 99.6159 357.431Z" fill="#263238"/>
<path d="M115.564 359.165C116.188 359.165 116.693 358.659 116.693 358.036C116.693 357.413 116.188 356.908 115.564 356.908C114.941 356.908 114.436 357.413 114.436 358.036C114.436 358.659 114.941 359.165 115.564 359.165Z" fill="#263238"/>
<path d="M112.771 357.211C112.922 357.362 113.748 356.647 114.973 356.592C116.197 356.537 117.106 357.115 117.229 356.949C117.353 356.784 117.147 356.605 116.748 356.33C116.21 355.979 115.573 355.81 114.931 355.849C114.288 355.887 113.675 356.133 113.184 356.55C112.812 356.867 112.702 357.156 112.771 357.211Z" fill="#263238"/>
<path d="M108.588 367.38C107.936 367.21 107.266 367.127 106.593 367.132C106.29 367.132 105.987 367.063 105.918 366.843C105.88 366.502 105.942 366.158 106.097 365.852L106.923 363.334C107.711 361.193 108.332 358.994 108.78 356.757C107.856 358.841 107.078 360.989 106.455 363.183C106.166 364.063 105.905 364.917 105.657 365.715C105.468 366.114 105.424 366.566 105.533 366.994C105.579 367.104 105.651 367.201 105.742 367.277C105.833 367.354 105.94 367.408 106.056 367.435C106.229 367.461 106.405 367.461 106.579 367.435C107.248 367.498 107.923 367.479 108.588 367.38Z" fill="#263238"/>
<path d="M112.62 368.536C110.838 369.664 108.816 370.357 106.716 370.559C107.163 371.177 107.806 371.627 108.54 371.834C109.275 372.041 110.058 371.994 110.762 371.701C113.363 370.614 112.62 368.536 112.62 368.536Z" fill="white"/>
<path d="M108.258 382.475C112.459 382.3 116.523 380.925 119.968 378.512C119.968 378.512 117.312 385.007 108.45 384.649L108.258 382.475Z" fill="#A36957"/>
<path d="M144.641 355.601C144.641 355.601 148.246 375.98 131.031 379.654L131.54 355.105L144.641 355.601Z" fill="#263238"/>
<path d="M144.076 351.088C143.002 346.726 140.992 342.651 138.187 339.143C140.664 340.175 142.315 341.208 142.659 340.877C143.003 340.547 142.37 339.928 141.283 339.006C139.871 337.851 138.257 336.969 136.522 336.405L135.71 336.185C136.846 335.732 137.883 335.064 138.765 334.217C139.82 333.228 140.55 331.942 140.857 330.529C141.165 329.116 141.035 327.642 140.485 326.305C139.863 325.167 138.918 324.24 137.77 323.64C136.621 323.04 135.32 322.794 134.031 322.933C132.751 323.114 131.531 323.593 130.47 324.332C129.409 325.07 128.536 326.048 127.921 327.186C127.625 327.73 127.381 328.301 127.192 328.892C127.234 327.914 127.335 326.94 127.495 325.975C128.045 322.576 129.311 320.03 129.105 319.92C127.8 321.648 126.986 323.698 126.752 325.851C126.752 326.181 126.669 326.497 126.628 326.814C126.358 325.934 126.027 325.074 125.637 324.241C124.798 322.466 124 321.489 123.766 321.64C123.284 321.874 124.853 325.603 125.5 330.639C123.952 330.124 122.34 329.823 120.711 329.745C117.711 329.745 112.73 328.369 105.684 334.025C103.299 335.547 101.237 337.525 99.6159 339.845C97.2876 343.253 95.9752 347.252 95.8317 351.377C95.7892 352.615 95.8675 353.855 96.0657 355.078C96.1077 355.53 96.224 355.972 96.4097 356.385C96.5473 356.385 96.1482 354.473 96.4097 351.404C96.5645 349.129 97.0704 346.892 97.9096 344.772C96.8613 348.441 97.0943 352.357 98.5701 355.876L114.326 353.413C113.308 349.959 114.051 344.483 114.532 341.799C117.284 354.665 128.362 360.844 128.362 360.844L144.943 358.243C144.709 356.743 144.434 352.436 144.076 351.088Z" fill="#263238"/>
<path d="M182.221 548.166C182.73 548.414 223.379 556.423 221.879 550.919C220.379 545.414 182.578 536.773 182.578 536.773L182.221 548.166Z" fill="#FF725E"/>
<path d="M200.701 544.575C200.894 544.575 201.183 545.51 201.169 546.735C201.155 547.96 200.866 548.923 200.674 548.896C200.481 548.868 200.44 547.905 200.453 546.735C200.467 545.565 200.508 544.588 200.701 544.575Z" fill="#263238"/>
<path d="M198.541 543.832C198.72 543.832 199.077 544.919 198.94 546.35C198.802 547.781 198.293 548.827 198.114 548.758C197.935 548.689 198.114 547.616 198.224 546.281C198.334 544.947 198.334 543.86 198.541 543.832Z" fill="#263238"/>
<path d="M195.912 543.612C196.105 543.612 196.38 544.685 196.408 546.061C196.435 547.437 196.201 548.538 196.009 548.524C195.816 548.51 195.72 547.423 195.692 546.075C195.665 544.726 195.72 543.625 195.912 543.612Z" fill="#263238"/>
<path d="M190.959 539.635C191.172 539.624 191.386 539.647 191.592 539.704C192.004 539.704 192.61 539.896 193.38 540.075C194.935 540.405 197.178 540.942 199.917 541.699C202.655 542.456 205.903 543.405 209.453 544.616C211.228 545.221 213.113 545.841 214.957 546.653C216.956 547.459 218.793 548.62 220.379 550.079C220.626 550.277 220.828 550.525 220.97 550.808C221.058 551.009 221.071 551.233 221.008 551.442C220.945 551.652 220.81 551.832 220.626 551.95C220.097 552.226 219.503 552.354 218.906 552.322C217.847 552.404 216.801 552.446 215.783 552.473C213.732 552.473 211.751 552.473 209.866 552.322C206.109 552.088 202.751 551.62 199.944 551.18C197.137 550.739 194.88 550.299 193.325 549.983L191.537 549.611C191.323 549.582 191.114 549.522 190.917 549.432C191.74 549.459 192.559 549.551 193.367 549.707L200.013 550.671C202.765 551.056 206.178 551.469 209.907 551.675C211.778 551.772 213.732 551.827 215.769 551.772C216.773 551.772 217.819 551.703 218.851 551.62C219.325 551.647 219.797 551.557 220.227 551.359C220.351 551.262 220.365 551.207 220.324 551.083C220.209 550.897 220.065 550.729 219.897 550.588C218.369 549.19 216.602 548.076 214.682 547.299C212.838 546.501 210.967 545.923 209.178 545.235C205.641 544.011 202.421 542.992 199.71 542.18C197 541.369 194.77 540.804 193.243 540.336C192.467 540.153 191.704 539.918 190.959 539.635Z" fill="#263238"/>
<path d="M212.549 545.676C212.742 545.744 212.343 547.286 212.549 549.184C212.755 551.083 213.278 552.556 213.086 552.652C212.353 551.654 211.919 550.469 211.833 549.234C211.748 547.999 212.015 546.765 212.604 545.676H212.549Z" fill="#263238"/>
<path d="M47.8486 540.116C47.2844 540.116 6.26413 545.772 9.44282 550.382C12.6215 554.992 51.2062 550.946 51.2062 550.946L47.8486 540.116Z" fill="#FF725E"/>
<path d="M31.4735 549.542C31.3084 549.625 30.7167 548.799 30.3314 547.643C29.9461 546.488 29.9598 545.497 30.0974 545.497C30.235 545.497 30.6341 546.364 31.0056 547.478C31.3772 548.593 31.6524 549.446 31.4735 549.542Z" fill="#263238"/>
<path d="M33.7715 549.529C33.6064 549.625 32.9046 548.676 32.5606 547.286C32.2166 545.896 32.3679 544.726 32.5606 544.726C32.7532 544.726 32.9321 545.813 33.2624 547.107C33.5926 548.4 33.9504 549.432 33.7715 549.529Z" fill="#263238"/>
<path d="M36.3173 548.882C36.1384 548.964 35.5329 548.015 35.0513 546.721C34.5697 545.428 34.4321 544.313 34.6247 544.258C34.8174 544.203 35.2577 545.221 35.7256 546.474C36.1934 547.726 36.4962 548.799 36.3173 548.882Z" fill="#263238"/>
<path d="M42.3443 551.001C42.1461 551.078 41.9373 551.125 41.7251 551.139L39.9087 551.373C38.3262 551.565 36.042 551.785 33.2073 551.964C30.3726 552.143 26.9875 552.295 23.2309 552.322C21.3457 552.322 19.3779 552.322 17.3138 552.198C15.1633 552.104 13.0491 551.61 11.0803 550.74C10.7781 550.633 10.5015 550.464 10.2684 550.244C10.132 550.077 10.0576 549.868 10.0576 549.653C10.0576 549.437 10.132 549.228 10.2684 549.061C10.6735 548.621 11.1927 548.302 11.7683 548.139C12.7453 547.712 13.7085 547.341 14.6718 546.969C16.5983 546.267 18.4972 545.689 20.3136 545.18C23.9464 544.176 27.2765 543.529 30.0699 543.034C32.8633 542.538 35.1475 542.208 36.7162 542.002L38.5326 541.768C38.7423 541.734 38.9559 541.734 39.1656 541.768C38.3783 542.01 37.5731 542.189 36.7575 542.304L30.1662 543.557C27.4141 544.121 24.084 544.823 20.5338 545.841C18.7312 546.364 16.8597 546.942 15.0296 547.657C14.0801 548.029 13.1168 548.4 12.1536 548.813C11.7048 548.942 11.294 549.178 10.9564 549.501C10.8739 549.639 10.8739 549.68 10.9564 549.79C11.1286 549.933 11.3241 550.044 11.5344 550.12C13.4293 550.939 15.4578 551.406 17.5202 551.496C19.5293 551.662 21.5108 551.648 23.3822 551.662C27.1251 551.662 30.4964 551.579 33.3311 551.469C36.1658 551.359 38.4501 551.194 40.0325 551.097C40.8001 551.014 41.5724 550.982 42.3443 551.001Z" fill="#263238"/>
<path d="M19.9283 552.377C19.7081 552.377 19.5981 550.794 18.8275 549.047C18.0569 547.299 17.0386 546.088 17.19 545.951C17.3413 545.813 18.6899 546.845 19.488 548.703C20.1011 549.826 20.2587 551.141 19.9283 552.377Z" fill="#263238"/>
<path d="M175.038 490.317H154.163L77.1036 492.312L55.0867 489.464C51.6603 488.707 49.4035 488.39 48.6742 488.624C45.7168 489.857 43.1252 491.828 41.1472 494.349C32.7532 504.366 38.0373 519.806 50.6695 523.246L62.5311 526.466L36.5787 534.805L45.3442 559.684C45.3442 559.684 84.094 551.304 121.674 542.456L181.808 558.721L190.477 530.8L180.28 527.484C186.679 525.53 190.725 523.989 191.289 523.053C195.073 517.191 201.774 489.931 174.941 490.344" fill="#455A64"/>
<path opacity="0.2" d="M179.95 527.581L135.256 546.089L121.743 542.428L179.95 527.581Z" fill="black"/>
<path opacity="0.2" d="M62.7238 492.408L119.94 508.797L163.52 493.936L62.7238 492.408Z" fill="black"/>
<path d="M54.5775 557.882C53.8468 556.75 53.2336 555.546 52.7474 554.29C51.7291 552.02 50.4081 548.786 49.1146 545.263C47.8211 541.74 46.7615 538.383 46.0872 536.016C45.6518 534.742 45.3429 533.429 45.1653 532.094C45.7258 533.311 46.186 534.572 46.5413 535.865C47.3395 538.218 48.4541 541.465 49.7475 545.015C51.041 548.566 52.2933 551.772 53.1877 554.084C53.747 555.312 54.2117 556.582 54.5775 557.882Z" fill="#263238"/>
<path d="M192.514 499.591C192.402 499.658 192.282 499.709 192.156 499.743L191.082 500.142L186.954 501.6L171.694 506.788C158.745 511.109 140.829 516.957 120.972 523.191C101.116 529.424 83.0619 534.86 69.9756 538.713L54.4537 543.199L50.2292 544.368L49.1145 544.657C48.9896 544.697 48.8601 544.72 48.7292 544.726L49.1008 544.588L50.1879 544.231L54.316 542.923L69.7692 538.217C82.828 534.254 100.841 528.736 120.683 522.503C140.526 516.269 158.47 510.503 171.446 506.307L186.83 501.339L191.027 499.963L192.115 499.633C192.245 499.599 192.379 499.586 192.514 499.591Z" fill="#263238"/>
<path d="M150.847 498.587C150.569 498.746 150.273 498.871 149.966 498.959L147.406 499.894C145.177 500.693 141.902 501.821 137.912 503.183C129.875 505.935 118.743 509.568 106.427 513.517C94.1117 517.467 82.9106 520.948 74.7781 523.397C70.6499 524.622 67.4161 525.585 65.1457 526.232L62.5174 526.961C62.2106 527.052 61.8979 527.121 61.5817 527.168C61.8654 527.019 62.1656 526.903 62.4761 526.824L65.0631 525.971L74.6955 522.916L106.262 512.843L137.802 502.702L147.365 499.633L149.98 498.821C150.259 498.712 150.55 498.634 150.847 498.587Z" fill="#263238"/>
<path d="M119.651 508.701C119.651 508.894 106.813 505.399 91.0843 500.899C75.356 496.399 62.6687 492.643 62.7238 492.409C62.7788 492.175 75.5624 495.711 91.277 500.211C106.992 504.711 119.706 508.509 119.651 508.701Z" fill="#263238"/>
<path d="M182.138 528.901C180.728 533.546 179.084 538.115 177.212 542.593C174.308 550.079 171.804 556.079 171.625 556.01C173.032 551.369 174.676 546.804 176.551 542.332C179.455 534.846 181.959 528.833 182.138 528.901Z" fill="#263238"/>
<path d="M176.771 540.433C172.976 539.778 169.222 538.9 165.529 537.805C161.795 536.922 158.118 535.81 154.521 534.475C158.317 535.126 162.071 536.004 165.763 537.103C169.498 537.985 173.174 539.097 176.771 540.433Z" fill="#263238"/>
<path d="M91.1807 517.618C90.4598 517.531 89.7467 517.388 89.0478 517.191L83.2958 515.815C78.4521 514.577 71.7507 512.898 64.4438 510.696C58.1805 508.856 52.044 506.608 46.0735 503.967C43.803 502.922 41.9453 502.013 40.7619 501.339C40.1034 501.029 39.4767 500.656 38.8904 500.225C39.577 500.461 40.2441 500.751 40.8857 501.092C42.1517 501.683 43.9819 502.468 46.2799 503.5C52.2835 505.994 58.4156 508.166 64.6503 510.008C71.9434 512.21 78.6172 513.958 83.4334 515.32L89.1166 516.957C89.825 517.108 90.5165 517.329 91.1807 517.618Z" fill="#263238"/>
<path d="M133.481 392.08H131.788L131.54 386.218L108.299 387.594C108.299 387.594 108.533 390.346 108.519 392.259C94.208 393.635 71.2691 400.983 70.7187 433.197L89.0753 433.623C87.5204 448.402 87.6992 457.223 86.1993 462.768C83.6399 471.933 75.5349 491.28 77.1586 492.257C78.7824 493.234 154.108 494.624 157.699 492.67C161.291 490.716 154.755 465.465 153.117 458.612C152.085 454.237 151.865 444.219 151.837 436.472L172.919 435.522C172.919 435.522 174.446 391.956 133.481 392.08Z" fill="#FF725E"/>
<path d="M131.664 391.846C130.554 392.174 129.408 392.368 128.252 392.424C126.119 392.672 123.174 392.906 119.913 392.975C116.651 393.044 113.707 392.975 111.574 392.782C110.414 392.763 109.261 392.615 108.134 392.342C109.28 392.206 110.437 392.183 111.588 392.273C113.721 392.273 116.652 392.273 119.844 392.273C123.036 392.273 126.022 392.053 128.1 391.943C129.282 391.796 130.476 391.764 131.664 391.846Z" fill="#263238"/>
<path d="M112.523 387.402C112.73 387.402 112.881 388.53 112.881 389.92C112.881 391.31 112.73 392.452 112.523 392.452C112.317 392.452 112.166 391.323 112.166 389.92C112.166 388.516 112.262 387.402 112.523 387.402Z" fill="#263238"/>
<path d="M118.674 386.961C118.867 386.961 119.06 388.199 119.101 389.713C119.227 390.639 119.133 391.582 118.826 392.465C118.619 392.465 118.427 391.227 118.385 389.713C118.255 388.786 118.354 387.841 118.674 386.961Z" fill="#263238"/>
<path d="M125.087 386.741C125.279 386.741 125.555 387.952 125.582 389.493C125.61 391.034 125.403 392.245 125.197 392.245C124.897 391.361 124.784 390.423 124.867 389.493C124.908 388.007 124.908 386.754 125.087 386.741Z" fill="#263238"/>
<path d="M129.738 386.521C129.944 386.521 130.082 387.732 130.275 389.204C130.467 390.677 130.619 391.888 130.426 391.957C130.233 392.025 129.752 390.842 129.573 389.301C129.394 387.76 129.545 386.507 129.738 386.521Z" fill="#263238"/>
<path d="M91.9788 433.279C91.6085 431.006 91.4702 428.701 91.566 426.399C91.4201 424.101 91.5216 421.795 91.8687 419.519C92.2323 421.793 92.3706 424.098 92.2815 426.399C92.4097 428.697 92.3083 431.002 91.9788 433.279Z" fill="#263238"/>
<path d="M151.053 435.577C150.496 433.136 150.164 430.649 150.062 428.147C149.73 425.661 149.643 423.15 149.801 420.647C150.684 425.574 151.103 430.573 151.053 435.577Z" fill="#263238"/>
<path d="M91.9788 433.279C90.9298 433.418 89.8694 433.45 88.8138 433.376H81.2318H73.6359C72.585 433.451 71.5291 433.419 70.4847 433.279C71.5098 433.016 72.5638 432.882 73.6222 432.88C75.5624 432.729 78.2595 432.619 81.2318 432.633C84.204 432.646 86.9011 432.743 88.8414 432.894C89.8987 432.898 90.9519 433.027 91.9788 433.279Z" fill="#263238"/>
<path d="M172.877 435.577C169.151 435.94 165.404 436.059 161.662 435.935C157.916 436.059 154.165 435.94 150.434 435.577C154.165 435.223 157.916 435.103 161.662 435.219C165.404 435.104 169.15 435.223 172.877 435.577Z" fill="#263238"/>
<path d="M171.955 435.756C171.955 435.756 177.46 487.125 161.717 492.175C145.975 497.225 114.931 473.309 114.931 473.309L123.876 455.2C123.876 455.2 144.517 469.539 148.975 466.305C153.434 463.071 151.108 435.756 151.108 435.756H171.955Z" fill="#B78876"/>
<path d="M70.9802 433.279C70.9802 433.279 65.3796 484.125 81.108 489.188C96.8363 494.252 127.894 470.309 127.894 470.309L118.936 452.2C118.936 452.2 98.1711 465.479 93.864 462.121C91.3734 460.167 91.3046 433.541 91.3046 433.541C83.9839 433.224 77.2 432.908 70.9802 433.279Z" fill="#B78876"/>
<path d="M162.158 443.875L151.713 495.064C151.713 495.064 87.5341 494.569 86.8736 494.376C86.2131 494.183 79.9933 443.875 79.9933 443.875H162.158Z" fill="#263238"/>
<path d="M116.06 469.814C116.007 470.585 116.188 471.354 116.578 472.021C116.968 472.688 117.55 473.222 118.248 473.554C118.946 473.886 119.727 474.001 120.491 473.883C121.255 473.765 121.966 473.42 122.531 472.893C123.096 472.367 123.49 471.682 123.661 470.928C123.832 470.175 123.773 469.387 123.491 468.667C123.208 467.948 122.716 467.33 122.078 466.894C121.44 466.458 120.686 466.224 119.913 466.222C118.927 466.192 117.969 466.553 117.248 467.225C116.526 467.898 116.099 468.828 116.06 469.814Z" fill="white"/>
<path d="M129.545 357.5C130.126 357.141 130.788 356.931 131.47 356.89C132.152 356.849 132.833 356.978 133.453 357.266C134.245 357.905 134.766 358.819 134.912 359.825C135.096 360.64 135.087 361.487 134.884 362.297C134.68 363.108 134.289 363.859 133.742 364.49C133.172 365.099 132.409 365.494 131.582 365.606C130.755 365.719 129.914 365.544 129.201 365.109" fill="#B78876"/>
<path d="M131.196 363.706C131.196 363.596 131.637 363.527 132.146 363.142C132.482 362.924 132.754 362.62 132.933 362.262C133.112 361.904 133.192 361.505 133.164 361.105C133.125 360.711 132.984 360.333 132.755 360.01C132.525 359.687 132.216 359.429 131.857 359.261C131.279 358.986 130.839 359 130.825 358.89C130.811 358.78 131.265 358.573 132.036 358.766C132.539 358.915 132.986 359.211 133.319 359.617C133.652 360.022 133.857 360.518 133.906 361.041C133.954 361.564 133.846 362.089 133.593 362.549C133.341 363.009 132.957 363.383 132.49 363.623C131.692 363.926 131.196 363.857 131.196 363.706Z" fill="#A36957"/>
</svg>
